<svg width="1024" height="1024" viewBox="0 0 1024 1024" xmlns="http://www.w3.org/2000/svg">
  <defs>
    <linearGradient id="grad1" x1="0%" y1="0%" x2="100%" y2="100%">
      <stop offset="0%" style="stop-color:#4CAF50;stop-opacity:1" />
      <stop offset="100%" style="stop-color:#2196F3;stop-opacity:1" />
    </linearGradient>
  </defs>
  
  <!-- Background circle -->
  <circle cx="512" cy="512" r="502" fill="url(#grad1)" stroke="#fff" stroke-width="4"/>
  
  <!-- Pet care icon elements -->
  <g transform="translate(512, 512)">
    <!-- Heart shape for care -->
    <path d="M-30,-10 C-30,-25 -15,-35 0,-25 C15,-35 30,-25 30,-10 C30,5 0,35 0,35 C0,35 -30,5 -30,-10 Z" 
          fill="white" opacity="0.9"/>
    
    <!-- Plus sign for medical -->
    <rect x="-3" y="-20" width="6" height="40" fill="white" opacity="0.7"/>
    <rect x="-20" y="-3" width="40" height="6" fill="white" opacity="0.7"/>
    
    <!-- Paw print -->
    <g transform="translate(0, 15)" opacity="0.6">
      <circle cx="0" cy="0" r="3" fill="white"/>
      <circle cx="-8" cy="-5" r="2" fill="white"/>
      <circle cx="8" cy="-5" r="2" fill="white"/>
      <circle cx="-5" cy="5" r="2" fill="white"/>
      <circle cx="5" cy="5" r="2" fill="white"/>
    </g>
  </g>
  
  <!-- App name text (for larger icons) -->
  
  <text x="512" y="984" text-anchor="middle" 
        font-family="Arial, sans-serif" font-size="24" font-weight="bold" fill="white">
    Pet Care
  </text>
</svg>